<?xml version="1.0" standalone="no"?>
<!DOCTYPE svg PUBLIC "-//W3C//DTD SVG 20010904//EN"
 "http://www.w3.org/TR/2001/REC-SVG-20010904/DTD/svg10.dtd">
<svg version="1.0" xmlns="http://www.w3.org/2000/svg"
 width="780.000000pt" height="784.000000pt" viewBox="0 0 780.000000 784.000000"
 preserveAspectRatio="xMidYMid meet">

<g transform="translate(0.000000,784.000000) scale(0.100000,-0.100000)"
fill="#000000" stroke="none">
<path d="M4258 5553 c6 -2 18 -2 25 0 6 3 1 5 -13 5 -14 0 -19 -2 -12 -5z"/>
<path d="M4378 5493 c6 -2 18 -2 25 0 6 3 1 5 -13 5 -14 0 -19 -2 -12 -5z"/>
<path d="M4310 5471 c0 -15 4 -20 13 -15 10 6 10 4 0 -7 -7 -7 -13 -32 -13
-56 0 -42 -1 -43 -34 -43 -19 0 -36 -5 -38 -12 -4 -11 -30 -14 -148 -21 l-45
-2 -5 -245 -5 -245 -100 0 -100 0 -5 195 c-3 107 -8 182 -11 165 l-6 -30 -2
33 c0 17 -6 32 -13 32 -6 0 -8 3 -5 7 4 3 1 13 -6 21 -10 13 -9 14 9 4 21 -11
21 -10 11 12 -8 17 -14 21 -19 13 -5 -8 -8 -4 -8 9 0 16 -8 23 -32 29 -18 4
-41 7 -50 6 -21 -3 -24 15 -5 22 7 3 7 6 1 6 -6 1 -22 -8 -35 -20 -22 -19 -22
-21 -4 -19 11 1 27 2 35 1 13 -1 13 -3 -1 -11 -8 -5 -41 -8 -72 -7 -49 2 -57
5 -62 25 -3 13 -3 27 0 32 4 6 -3 10 -13 10 -15 0 -19 -5 -15 -19 3 -10 0 -22
-6 -25 -6 -4 -11 0 -11 9 0 8 -7 18 -15 21 -8 4 -12 10 -9 15 3 5 10 6 16 3 6
-4 8 -3 5 3 -3 5 -23 7 -44 5 -29 -4 -33 -7 -19 -12 11 -3 15 -9 10 -13 -18
-11 -36 10 -30 34 4 19 3 18 -6 -3 -7 -16 -16 -28 -20 -28 -5 0 -4 9 3 21 14
27 -4 50 -23 31 -10 -10 -10 -15 2 -22 12 -8 9 -10 -12 -10 -16 0 -28 -6 -29
-12 0 -7 -4 -4 -9 7 -8 19 -9 18 -9 -4 -1 -31 -10 -22 -17 15 -8 46 -12 40
-19 -32 -18 -166 24 -330 120 -463 63 -87 110 -135 171 -173 53 -34 162 -76
229 -90 l55 -11 0 -333 0 -333 -142 73 c-116 58 -354 156 -382 156 -3 0 -6
-202 -6 -449 l0 -449 34 -20 c45 -27 80 -100 73 -152 -17 -128 -157 -189 -266
-117 -47 31 -77 98 -68 153 7 43 43 98 75 115 l22 12 -2 476 -3 476 -120 36
c-66 20 -124 35 -128 32 -4 -2 -7 -105 -7 -228 l1 -224 36 -27 c123 -93 55
-294 -99 -294 -67 0 -122 30 -148 80 -40 79 -18 172 54 219 l36 25 -2 245 -3
245 -104 27 c-58 15 -117 30 -133 33 l-28 6 0 -875 0 -875 25 10 c54 21 208
41 345 47 380 15 712 -109 955 -356 l59 -61 91 88 c142 140 254 205 457 270
229 74 501 79 796 16 l32 -7 0 871 0 871 -130 -35 c-71 -19 -132 -34 -135 -34
-3 0 -5 -109 -5 -242 l1 -243 32 -20 c105 -67 104 -210 -2 -282 -47 -32 -125
-32 -172 0 -43 29 -79 92 -79 137 0 51 34 118 70 138 l30 17 0 229 0 228 -27
-6 c-16 -4 -74 -21 -130 -38 l-103 -31 0 -464 0 -464 37 -32 c100 -88 89 -223
-23 -277 -60 -30 -129 -24 -179 14 -51 39 -68 78 -63 143 5 60 27 97 76 128
l31 20 1 448 c0 273 -4 447 -9 447 -46 0 -377 -142 -478 -205 l-43 -26 0 335
0 336 28 5 c88 17 125 29 200 66 146 71 259 206 314 374 20 60 23 91 23 212 0
82 -4 146 -10 151 -5 5 -31 12 -57 16 -39 4 -48 3 -48 -9 0 -11 12 -15 44 -15
39 0 45 -3 50 -26 4 -15 5 -29 1 -32 -3 -3 -5 3 -5 12 0 12 -5 16 -16 12 -8
-3 -34 4 -57 17 -54 28 -54 29 -39 34 21 8 13 23 -14 23 -14 0 -23 4 -20 9 3
4 18 6 32 3 16 -3 25 -1 21 5 -3 5 -32 9 -64 8 -32 -1 -64 3 -70 8 -10 7 -13
3 -13 -12z m184 -116 c-4 -8 -8 -15 -10 -15 -2 0 -4 7 -4 15 0 8 4 15 10 15 5
0 7 -7 4 -15z m36 1 c0 -3 -4 -8 -10 -11 -5 -3 -10 -1 -10 4 0 6 5 11 10 11 6
0 10 -2 10 -4z m-365 -46 c-3 -5 -14 -10 -23 -9 -14 0 -13 2 3 9 27 11 27 11
20 0z m95 -44 c0 -3 -4 -8 -10 -11 -5 -3 -10 -1 -10 4 0 6 5 11 10 11 6 0 10
-2 10 -4z m-240 -2188 c50 -28 73 -64 78 -123 5 -66 -18 -118 -68 -151 -111
-74 -247 -10 -258 120 -5 60 9 95 56 140 52 49 121 54 192 14z"/>
<path d="M3730 5340 c0 -5 7 -10 16 -10 8 0 12 5 9 10 -3 6 -10 10 -16 10 -5
0 -9 -4 -9 -10z"/>
<path d="M4060 5341 c0 -9 139 -4 149 5 2 2 -30 4 -72 4 -42 0 -77 -4 -77 -9z"/>
<path d="M2775 5224 c-65 -34 -96 -82 -97 -149 -2 -78 66 -165 128 -165 13 0
29 -9 36 -19 8 -11 80 -87 161 -170 l146 -150 -15 -38 c-20 -47 -14 -125 13
-161 73 -99 221 -98 282 2 31 49 29 130 -4 179 -27 39 -89 77 -127 77 -21 0
-140 112 -293 277 l-39 43 22 39 c46 82 16 186 -68 229 -52 26 -103 28 -145 6z"/>
<path d="M4945 5222 c-92 -59 -117 -151 -64 -238 l19 -31 -151 -159 c-131
-138 -156 -160 -188 -164 -147 -22 -202 -200 -89 -295 45 -38 95 -48 154 -30
106 31 150 136 99 235 -12 23 -10 29 38 80 150 163 280 288 305 293 59 12 122
92 122 154 -1 45 -35 108 -75 138 -48 37 -126 45 -170 17z"/>
<path d="M2275 4153 c-44 -23 -104 -82 -128 -128 l-22 -40 -3 -864 c-3 -945
-4 -927 55 -1003 15 -19 44 -46 63 -59 l35 -24 640 -5 c352 -3 641 -7 641 -8
1 -1 5 -14 9 -29 16 -64 109 -156 174 -172 65 -17 204 -22 300 -12 75 8 104
16 139 38 54 34 99 87 117 139 l13 39 640 5 640 5 43 30 c24 17 57 52 73 78
27 44 30 59 38 173 12 200 4 1642 -10 1685 -7 19 -28 54 -48 78 -35 40 -117
91 -149 91 -13 0 -15 -104 -15 -956 0 -905 -1 -955 -17 -950 -302 89 -454 116
-659 116 -153 0 -284 -20 -404 -62 -144 -51 -196 -83 -300 -184 -62 -60 -110
-98 -131 -104 -45 -13 -131 -13 -166 1 -15 5 -73 54 -128 107 -107 104 -181
149 -315 190 -263 81 -629 66 -954 -38 -51 -17 -96 -30 -100 -30 -3 0 -6 430
-6 955 0 903 -1 955 -17 955 -10 -1 -31 -8 -48 -17z"/>
</g>
</svg>
